PathFileType	4	(X/Y/Z)	/Users/itak/Documents/Research/Walk-IL/dataset/trc/00374_00011.trc
DataRate	CameraRate	NumFrames	NumMarkers	Units	OrigDataRate	OrigDataStartFrame	OrigNumFrames
100.000000	100.000000	4	54	mm	100.000000	465	532
Frame#	Time	RPSI			LPSI			L3			STRN			T10			C7			CLAV			RBAK			LBAK			LSHO			LUPA			LAEL			LAOL			LWTS			LWPS			LFRA			LIFD			LHPS			LHTS			RSHO			RUPA			RAEL			RAOL			RWTS			RWPS			RFRA			RIFD			RHTS			RHPS			RBHD			LFHD			RFHD			LBHD			LHIP			RHIP			RASI			LASI			LKNE			LTHI			LANK			LTIP			LTOE			LMT1			LMT5			LHEE			RKNE			RTHI			RANK			RTIP			RTOE			RMT1			RMT5			RHEE			*53			
		X1	Y1	Z1	X2	Y2	Z2	X3	Y3	Z3	X4	Y4	Z4	X5	Y5	Z5	X6	Y6	Z6	X7	Y7	Z7	X8	Y8	Z8	X9	Y9	Z9	X10	Y10	Z10	X11	Y11	Z11	X12	Y12	Z12	X13	Y13	Z13	X14	Y14	Z14	X15	Y15	Z15	X16	Y16	Z16	X17	Y17	Z17	X18	Y18	Z18	X19	Y19	Z19	X20	Y20	Z20	X21	Y21	Z21	X22	Y22	Z22	X23	Y23	Z23	X24	Y24	Z24	X25	Y25	Z25	X26	Y26	Z26	X27	Y27	Z27	X28	Y28	Z28	X29	Y29	Z29	X30	Y30	Z30	X31	Y31	Z31	X32	Y32	Z32	X33	Y33	Z33	X34	Y34	Z34	X35	Y35	Z35	X36	Y36	Z36	X37	Y37	Z37	X38	Y38	Z38	X39	Y39	Z39	X40	Y40	Z40	X41	Y41	Z41	X42	Y42	Z42	X43	Y43	Z43	X44	Y44	Z44	X45	Y45	Z45	X46	Y46	Z46	X47	Y47	Z47	X48	Y48	Z48	X49	Y49	Z49	X50	Y50	Z50	X51	Y51	Z51	X52	Y52	Z52	X53	Y53	Z53	X54	Y54	Z54	

466	4.65	268.9628601074219	972.4502563476562	1005.064819335938	397.2513122558594	973.034423828125	1014.142395019531	332.0962524414062	1025.641967773438	1010.667358398438	331.5218505859375	1228.996948242188	1227.597778320312	351.8443298339844	1141.755493164062	996.1427612304688	373.2479248046875	1393.385864257812	1016.139770507812	343.9354248046875	1350.930786132812	1174.943237304688	309.1582946777344	1251.463989257812	973.2144165039062	473.5142517089844	1352.603515625	1019.631713867188	517.65185546875	1375.647705078125	1110.029052734375	585.1616821289062	1254.235595703125	1112.462280273438	599.1825561523438	1056.443115234375	1165.540649414062	558.4089965820312	1029.347778320312	1094.72265625	505.4282531738281	883.2821655273438	1328.745849609375	565.7078857421875	852.5751953125	1314.588012695312	593.8807373046875	965.310791015625	1214.246826171875	471.6067810058594	740.23876953125	1402.595703125	548.4619750976562	789.2298583984375	1341.089599609375	503.8384704589844	817.8568115234375	1376.881469726562	203.3243255615234	1388.997436523438	1049.0107421875	142.5788879394531	1326.09716796875	1028.220703125	113.0862503051758	1060.893676757812	1009.462585449219	207.2416229248047	1054.516967773438	1004.961364746094	116.5352172851562	826.365478515625	1115.276000976562	61.49964904785156	818.7230224609375	1062.844482421875	93.75403594970703	993.4180908203125	1026.001953125	99.97832489013672	653.991943359375	1110.361206054688	89.16775512695312	725.4249267578125	1129.532348632812	56.76042556762695	733.552001953125	1068.720458984375	287.1479187011719	1605.4091796875	1037.66455078125	378.6103210449219	1623.176147460938	1224.03759765625	280.7222290039062	1624.0224609375	1199.1025390625	431.2735595703125	1598.666748046875	1046.685913085938	498.6348266601562	923.1951904296875	1106.586181640625	157.2541809082031	921.4776000976562	1078.374633789062	190.1021423339844	952.8901977539062	1187.062255859375	427.3370666503906	947.3442993164062	1223.827270507812	483.9013977050781	463.30908203125	1180.821533203125	493.1872863769531	604.0716552734375	1174.034301757812	486.0250549316406	47.10556030273438	1074.211059570312	497.1388244628906	245.2234191894531	1134.314575195312	411.2461547851562	42.82189559936523	1276.600341796875	375.0767517089844	30.48383903503418	1203.659545898438	488.4830017089844	41.82242202758789	1199.815307617188	420.2369689941406	41.14908981323242	1037.154418945312	87.28269195556641	473.4185485839844	1144.505859375	112.3992080688477	732.6099853515625	1162.138061523438	19.38328552246094	58.83550262451172	1089.456909179688	68.45195770263672	361.064453125	1149.29345703125	67.08723449707031	45.61489868164062	1280.676635742188	109.9573059082031	40.12481307983398	1225.708740234375	-1.969055414199829	39.24134063720703	1188.154418945312	67.64723968505859	61.46703338623047	1038.944091796875	nan	nan	nan	
467	4.66	264.4328308105469	972.0612182617188	1007.022277832031	392.78369140625	972.8424072265625	1015.174560546875	327.6514587402344	1025.342163085938	1012.177917480469	329.2869262695312	1228.749755859375	1229.285278320312	347.58642578125	1141.382690429688	997.638427734375	370.0047302246094	1392.928833007812	1017.453308105469	341.6556396484375	1350.56591796875	1176.4580078125	305.023681640625	1251.164184570312	975.0792236328125	470.1050109863281	1351.85546875	1020.277709960938	515.0546264648438	1374.675659179688	1110.365966796875	582.0496215820312	1252.947265625	1111.912963867188	595.6239013671875	1054.811401367188	1163.769897460938	554.1737670898438	1028.36669921875	1093.07080078125	503.1008911132812	878.7680053710938	1325.294677734375	563.4019775390625	848.4339599609375	1310.155517578125	590.6001586914062	962.8369140625	1211.339111328125	469.9583435058594	733.6307373046875	1395.634399414062	546.431396484375	784.3335571289062	1335.252563476562	501.8800964355469	812.0089721679688	1371.862182617188	200.295166015625	1389.119506835938	1051.524780273438	139.1013488769531	1326.310302734375	1031.452270507812	108.2452926635742	1061.0029296875	1014.91552734375	202.2228088378906	1054.309692382812	1008.255310058594	115.3939361572266	826.942626953125	1121.994018554688	57.53969573974609	819.737060546875	1072.98681640625	89.18888854980469	993.61279296875	1032.649047851562	96.57838439941406	654.9306030273438	1119.3046875	87.51622009277344	726.5250244140625	1138.51171875	52.21662139892578	734.6605224609375	1079.660888671875	284.7059326171875	1605.10400390625	1039.120239257812	376.9220275878906	1622.900634765625	1225.093383789062	278.9189758300781	1623.90966796875	1200.525756835938	428.8326721191406	1598.153930664062	1047.539672851562	494.4652404785156	922.90625	1107.616455078125	153.6189575195312	920.8765258789062	1080.917602539062	186.7797088623047	952.2402954101562	1189.538452148438	424.2254028320312	947.1026000976562	1224.811157226562	482.1178283691406	463.4162902832031	1181.095703125	490.8742370605469	604.2100219726562	1174.365844726562	485.9659423828125	47.13323974609375	1074.209350585938	496.2140502929688	245.5838928222656	1134.193115234375	411.3155212402344	42.90830612182617	1276.49072265625	375.1654968261719	30.45742797851562	1203.709228515625	488.5138244628906	41.8504524230957	1199.8134765625	420.1614990234375	41.14641571044922	1037.141967773438	85.495849609375	472.4549865722656	1144.795288085938	109.3317184448242	731.7473754882812	1164.444702148438	19.05365180969238	57.84677886962891	1088.994262695312	67.1119384765625	359.7720642089844	1149.275512695312	67.16413116455078	45.56472015380859	1280.245483398438	110.060417175293	39.99251556396484	1225.227172851562	-1.817633271217346	38.81402969360352	1187.797241210938	67.27484130859375	60.30038452148438	1038.378540039062	nan	nan	nan	
468	4.67	259.9086303710938	971.7876586914062	1008.9306640625	388.3118896484375	972.6558227539062	1016.164978027344	323.2284851074219	1025.104736328125	1013.638732910156	327.00341796875	1228.55322265625	1230.90966796875	343.3406372070312	1141.076904296875	999.0617065429688	366.7531127929688	1392.53125	1018.723937988281	339.3441162109375	1350.242309570312	1177.908081054688	300.8919067382812	1250.93212890625	976.89208984375	466.683837890625	1351.163940429688	1020.905029296875	512.424560546875	1373.767944335938	1110.682250976562	578.9013671875	1251.730224609375	1111.333129882812	592.0482177734375	1053.252075195312	1161.876586914062	549.8692626953125	1027.491333007812	1091.331298828125	501.0286560058594	874.1511840820312	1321.613891601562	561.28173828125	844.2086791992188	1305.364135742188	587.386962890625	960.3991088867188	1208.239624023438	468.6881103515625	727.0399169921875	1388.401000976562	544.6229248046875	779.4151611328125	1329.00048828125	500.3133239746094	806.1507568359375	1366.610107421875	197.2653198242188	1389.308227539062	1053.973266601562	135.6203765869141	1326.614501953125	1034.608642578125	103.2378540039062	1061.2734375	1020.360534667969	196.9752044677734	1054.170532226562	1011.445861816406	114.0736846923828	827.6005249023438	1128.349731445312	53.44979095458984	821.005126953125	1083.062133789062	84.44319152832031	993.99267578125	1039.288696289062	92.71331024169922	655.9874877929688	1127.922485351562	85.87960052490234	727.5741577148438	1147.033447265625	47.40708923339844	736.0616455078125	1090.548828125	282.1985778808594	1604.851196289062	1040.561401367188	375.1930541992188	1622.655151367188	1226.123168945312	277.0810546875	1623.827392578125	1201.9384765625	426.3443603515625	1597.7041015625	1048.369506835938	490.2120971679688	922.5052490234375	1108.654174804688	149.9860534667969	920.4601440429688	1083.37548828125	183.4687652587891	951.75146484375	1191.912353515625	421.1164855957031	946.91357421875	1225.767822265625	480.2333374023438	463.5176696777344	1181.31005859375	488.4701843261719	604.3223876953125	1174.64013671875	485.8726501464844	47.1880989074707	1074.2099609375	495.2143859863281	245.9659118652344	1134.032836914062	411.3779296875	42.99290084838867	1276.392700195312	375.2481994628906	30.42718124389648	1203.765258789062	488.5337829589844	41.88801193237305	1199.815795898438	420.0656127929688	41.14460754394531	1037.136962890625	83.76250457763672	471.6248474121094	1144.847778320312	106.2811508178711	731.0397338867188	1166.6357421875	18.91442108154297	56.94074630737305	1088.575317382812	65.82238006591797	358.59130859375	1149.12060546875	67.22482299804688	45.59982681274414	1279.916625976562	110.182502746582	39.8893928527832	1224.896728515625	-1.608537673950195	38.5687370300293	1187.487426757812	67.11525726318359	59.15674591064453	1037.90771484375	nan	nan	nan	
469	4.68	255.4149475097656	971.6390380859375	1010.795532226562	383.85888671875	972.4814453125	1017.1240234375	318.8497924804688	1024.931396484375	1015.0556640625	324.6769104003906	1228.400268554688	1232.466064453125	339.1251831054688	1140.840454101562	1000.416381835938	363.4995727539062	1392.197265625	1019.955322265625	337.0126953125	1349.9658203125	1179.300048828125	296.7756652832031	1250.771606445312	978.651123046875	463.2615051269531	1350.536865234375	1021.516845703125	509.7690734863281	1372.935913085938	1110.981689453125	575.729248046875	1250.60009765625	1110.732177734375	588.46142578125	1051.786254882812	1159.875366210938	545.5035400390625	1026.73876953125	1089.524780273438	499.1973571777344	869.4561767578125	1317.697265625	559.3406372070312	839.9447631835938	1300.233276367188	584.2417602539062	958.0240478515625	1204.9599609375	467.7685546875	720.5089721679688	1380.926147460938	543.024169921875	774.5260009765625	1322.363525390625	499.1254272460938	800.3439331054688	1361.14599609375	194.2427062988281	1389.561157226562	1056.360107421875	132.1432800292969	1327.0078125	1037.695190429688	98.07232666015625	1061.7109375	1025.7861328125	191.5056304931641	1054.109252929688	1014.528564453125	112.4968109130859	828.3349609375	1134.31396484375	49.23963165283203	822.4986572265625	1092.963989257812	79.52826690673828	994.560546875	1045.891479492188	88.39614105224609	657.1478881835938	1136.175659179688	84.23761749267578	728.5631713867188	1155.01708984375	42.37952041625977	737.7244262695312	1101.275146484375	279.6360473632812	1604.650024414062	1041.988891601562	373.4260864257812	1622.44189453125	1227.130615234375	275.2120056152344	1623.774291992188	1203.341552734375	423.8148498535156	1597.315551757812	1049.180908203125	485.9117126464844	922.0131225585938	1109.67724609375	146.3698425292969	920.2294921875	1085.744506835938	180.1845245361328	951.42822265625	1194.182373046875	418.0277709960938	946.7804565429688	1226.701293945312	478.2604370117188	463.6076049804688	1181.444946289062	485.991455078125	604.4061889648438	1174.845092773438	485.7421875	47.27381134033203	1074.210083007812	494.1477966308594	246.3684692382812	1133.8232421875	411.4348754882812	43.07792282104492	1276.310913085938	375.3240051269531	30.39358329772949	1203.826293945312	488.5416870117188	41.93628692626953	1199.822143554688	419.948974609375	41.14238357543945	1037.139770507812	82.05881500244141	470.9302062988281	1144.692016601562	103.2571258544922	730.4967041015625	1168.712524414062	18.90567398071289	56.11247253417969	1088.205322265625	64.55403137207031	357.542724609375	1148.8447265625	67.27712249755859	45.67229843139648	1279.675903320312	110.3133850097656	39.79964447021484	1224.693115234375	-1.377076268196106	38.44867324829102	1187.2353515625	67.09793090820312	58.0670166015625	1037.527587890625	nan	nan	nan	
